<svg height="512" width="512" xmlns="http://www.w3.org/2000/svg"><path d="M474.322 123.216c-12.943-23.089-26.996-27.331-55.594-28.948-28.576-1.945-100.426-2.752-162.666-2.752-62.367 0-134.247.807-162.793 2.719-28.538 1.65-42.619 5.864-55.678 28.981-13.336 23.06-20.194 62.776-20.194 132.696v.241c0 69.615 6.858 109.629 20.194 132.447 13.059 23.091 27.107 27.277 55.654 29.218 28.57 1.678 100.45 2.667 162.817 2.667 62.24 0 134.09-.989 162.693-2.634 28.604-1.94 42.646-6.133 55.594-29.218 13.449-22.82 20.254-62.832 20.254-132.455v-.239c.001-69.947-6.804-109.663-20.281-132.723zm0 0" fill="#f84437"/><path d="M196.352 345.72V166.282L345.475 256l-149.123 89.72zm0 0" fill="#fcfcfc"/></svg>